<svg data-v-0dd9719b="" version="1.0" xmlns="http://www.w3.org/2000/svg" xmlns:xlink="http://www.w3.org/1999/xlink" width="100%" height="100%" viewBox="0 0 340.000000 250.000000" preserveAspectRatio="xMidYMid meet" color-interpolation-filters="sRGB" style="margin: auto;"> <rect data-v-0dd9719b="" x="0" y="0" width="100%" height="100%" fill="#fff" fill-opacity="1" class="background"></rect> <rect data-v-0dd9719b="" x="0" y="0" width="100%" height="100%" fill="url(#watermark)" fill-opacity="1" class="watermarklayer"></rect> <g data-v-0dd9719b="" fill="#333" class="icon-text-wrapper icon-svg-group iconsvg" transform="translate(56.040000915527344,94.96395683288574)"><g class="iconsvg-imagesvg" transform="translate(0,0)"><g><rect fill="#333" fill-opacity="0" stroke-width="2" x="0" y="0" width="60" height="60.07208650380456" class="image-rect"></rect> <svg x="0" y="0" width="60" height="60.07208650380456" filtersec="colorsb5795212264" class="image-svg-svg primary" style="overflow: visible;"><svg xmlns="http://www.w3.org/2000/svg" viewBox="0 -0.00001430726933904225 99.8800048828125 100.00004577636719"><g fill-rule="evenodd"><path d="M10.85 81.18L46.64 87V76.88l-40.3-2.39a49.59 49.59 0 0 0 4.51 6.69zM51.52 100v-8.74l-37.47-6.45A49.85 49.85 0 0 0 49.94 100h1.58zM1.57 62.7l63.7 1.11v10L3.15 67.68a48.89 48.89 0 0 1-1.58-5zM.49 57.48l56.82 3.27V50.54L0 52.53c.08 1.67.25 3.32.49 4.95zM0 47.19L44.45 49V38.39l-43.94 4C.27 44 .11 45.58 0 47.19zM1.62 37.09l32.83-1.35v-10l-30.66 5a49 49 0 0 0-2.17 6.35zM6.32 25.55l35.4-3.08V11.64l-30 6.12a49.44 49.44 0 0 0-5.41 7.79zM49.63 0v9.2L15.26 14A49.84 49.84 0 0 1 49.63 0z" fill="#2491eb"></path><path d="M90 80l-43.36 7V76.88l47.12-2.8A50.6 50.6 0 0 1 90 80zM51.52 100v-8.74l34.33-6.48A49.82 49.82 0 0 1 51.52 100zM96.25 68.86l-31 5v-10l33-1.08a49 49 0 0 1-2 6.13zM99.42 57.18l-42.11 3.57V50.54l42.57 1.71c-.07 1.66-.23 3.31-.46 4.93zM99.88 47.67L44.45 49V38.39l54.81 3.38a49.74 49.74 0 0 1 .62 5.9zM98.19 36.88l-63.74-1.14v-10l62 5.95a48.69 48.69 0 0 1 1.72 5.2zM93.78 26l-52.06-3.53V11.64l47.39 7.29a50.45 50.45 0 0 1 4.67 7zM49.63 0v9.2l35.18 5A49.82 49.82 0 0 0 49.94 0z" fill="#145593"></path></g></svg></svg> <!----></g></g> <g transform="translate(67,5.766042709350586)"><g data-gra="path-name" fill-rule="" class="tp-name iconsvg-namesvg"><g transform="scale(1)"><g><path d="M2.76 5.22Q0 3.78 0 1.5L0 1.5Q0-0.78 2.4-5.55 4.8-10.32 8.82-16.5L8.82-16.5Q5.22-16.74 0-16.74L0-16.74Q1.44-20.64 6.96-20.64L6.96-20.64Q8.16-20.64 11.4-20.28L11.4-20.28Q18.12-30 23.94-36.66 29.76-43.32 31.68-43.32L31.68-43.32Q33.24-43.32 35.76-40.98L35.76-40.98Q34.56-40.08 32.25-33.51 29.94-26.94 28.17-19.11 26.4-11.28 26.4-6.48L26.4-6.48Q26.4-4.08 26.91-2.91 27.42-1.74 28.5-1.74L28.5-1.74Q30-1.74 32.04-3.93 34.08-6.12 36.48-10.68L36.48-10.68 37.56-9.54Q35.64-4.44 32.64-1.35 29.64 1.74 26.4 1.74L26.4 1.74Q23.64 1.74 22.38-0.66 21.12-3.06 21.12-7.56L21.12-7.56Q21.12-10.5 21.9-15L21.9-15Q18.84-15.48 13.32-16.14L13.32-16.14Q7.74-6.24 2.76 5.22L2.76 5.22ZM22.5-17.94Q23.58-22.98 25.32-28.38 27.06-33.78 28.86-38.04L28.86-38.04Q26.22-35.94 22.68-31.08 19.14-26.22 15.24-19.56L15.24-19.56 19.74-18.6Q21.54-18.12 22.5-17.94L22.5-17.94ZM66.18 1.86Q63.96 1.86 62.76 0.54 61.56-0.78 61.56-2.82L61.56-2.82Q61.56-3.78 61.83-4.95 62.1-6.12 62.46-7.14L62.46-7.14Q63.24-9.6 63.24-10.74L63.24-10.74Q63.24-12.54 61.86-12.54L61.86-12.54Q60.54-12.54 58.8-10.62 57.06-8.7 54.12-4.32L54.12-4.32Q53.4-3.24 51.96-0.66L51.96-0.66 50.82 1.38Q49.74 1.38 48.48 0.96 47.22 0.54 47.22-0.18L47.22-0.18Q47.22-0.78 48.48-4.02L48.48-4.02Q49.68-7.14 50.43-9.48 51.18-11.82 51.18-13.38L51.18-13.38Q51.18-15.18 49.92-15.18L49.92-15.18Q48.3-15.18 45.72-12.63 43.14-10.08 40.62-6.15 38.1-2.22 36.72 1.62L36.72 1.62Q35.64 1.62 34.17 1.02 32.7 0.42 32.7 0L32.7 0 36.54-15.36Q36.72-16.02 37.83-16.53 38.94-17.04 39.84-17.04L39.84-17.04Q40.74-17.04 41.31-16.5 41.88-15.96 41.88-15.06L41.88-15.06Q41.88-14.1 41.04-10.74L41.04-10.74Q43.92-14.7 46.98-17.31 50.04-19.92 52.74-19.92L52.74-19.92Q54.78-19.92 55.65-18.48 56.52-17.04 56.52-14.88L56.52-14.88Q56.52-13.74 56.28-12.75 56.04-11.76 55.5-10.08L55.5-10.08Q59.7-16.26 64.2-16.26L64.2-16.26Q66.36-16.26 67.35-14.97 68.34-13.68 68.34-11.76L68.34-11.76Q68.34-9.84 67.14-6.36L67.14-6.36Q67.08-6.12 66.69-4.8 66.3-3.48 66.3-2.64L66.3-2.64Q66.3-1.02 67.8-1.02L67.8-1.02Q69.96-1.02 72.03-3.78 74.1-6.54 75.9-10.38L75.9-10.38 76.92-9.12Q75.18-4.62 72.45-1.38 69.72 1.86 66.18 1.86L66.18 1.86ZM77.76 2.82Q75.66 2.82 74.25 1.44 72.84 0.06 72.84-2.46L72.84-2.46Q72.84-5.94 75.39-10.26 77.94-14.58 81.9-17.58 85.86-20.58 89.82-20.58L89.82-20.58Q92.46-20.58 94.23-19.23 96-17.88 96-15.78L96-15.78Q96-13.02 92.58-12.9L92.58-12.9Q94.74-12.24 94.74-11.1L94.74-11.1Q94.74-10.68 94.32-9.84 93.9-9 93.36-8.1L93.36-8.1Q92.4-6.54 91.86-5.37 91.32-4.2 91.32-3.18L91.32-3.18Q91.32-2.28 91.77-1.65 92.22-1.02 93.12-1.02L93.12-1.02Q94.8-1.02 97.41-3.36 100.02-5.7 102.48-10.38L102.48-10.38 103.62-9.24Q101.4-4.26 98.1-1.23 94.8 1.8 91.44 1.8L91.44 1.8Q89.04 1.8 87.75 0.21 86.46-1.38 86.46-3.42L86.46-3.42Q83.76-0.18 81.84 1.32 79.92 2.82 77.76 2.82L77.76 2.82ZM79.02-0.24Q81.12-0.24 83.91-3.27 86.7-6.3 90.24-11.16L90.24-11.16 91.44-12.78Q91.62-13.08 91.92-13.08L91.92-13.08 92.16-13.02Q92.46-13.98 92.46-15.24L92.46-15.24Q92.46-18.36 89.94-18.36L89.94-18.36Q87.3-18.36 84.42-15.54 81.54-12.72 79.59-8.82 77.64-4.92 77.64-2.16L77.64-2.16Q77.64-1.14 77.97-0.69 78.3-0.24 79.02-0.24L79.02-0.24ZM112.14 1.56Q109.92 1.56 108.54 0.39 107.16-0.78 107.16-2.76L107.16-2.76Q107.16-3.9 107.61-5.25 108.06-6.6 108.96-8.52L108.96-8.52Q109.74-10.2 110.16-11.37 110.58-12.54 110.58-13.44L110.58-13.44Q110.58-15.72 107.58-17.28L107.58-17.28Q106.38-14.28 104.79-11.22 103.2-8.16 101.94-6.06L101.94-6.06 101.04-7.8Q103.8-12.72 105.9-18.66L105.9-18.66Q105.3-19.26 105.3-20.28L105.3-20.28Q105.3-21.84 106.26-23.22 107.22-24.6 108.12-24.6L108.12-24.6Q108.72-24.6 109.11-23.88 109.5-23.16 109.5-22.68L109.5-22.68Q109.5-22.44 109.23-21.63 108.96-20.82 108.84-20.46L108.84-20.46Q108.9-20.04 109.32-19.65 109.74-19.26 110.88-18.54L110.88-18.54Q112.98-17.16 114.15-15.87 115.32-14.58 115.32-12.42L115.32-12.42Q115.32-11.1 114.87-9.78 114.42-8.46 113.52-6.6L113.52-6.6Q112.2-3.96 112.2-2.82L112.2-2.82Q112.2-1.44 113.7-1.44L113.7-1.44Q115.5-1.44 117.63-2.88 119.76-4.32 121.53-6.39 123.3-8.46 124.14-10.26L124.14-10.26 125.58-9.18Q124.38-6.48 122.22-4.02 120.06-1.56 117.39 0 114.72 1.56 112.14 1.56L112.14 1.56ZM134.7-25.26Q133.44-25.26 132.57-25.86 131.7-26.46 131.7-27.6L131.7-27.6Q131.7-28.98 133.23-30.03 134.76-31.08 136.5-31.08L136.5-31.08Q139.08-31.08 139.08-28.86L139.08-28.86Q139.08-27.6 137.7-26.43 136.32-25.26 134.7-25.26L134.7-25.26ZM127.62 1.8Q125.1 1.8 123.72 0.3 122.34-1.2 122.34-3.54L122.34-3.54Q122.34-5.94 123.69-10.05 125.04-14.16 127.11-17.28 129.18-20.4 131.28-20.4L131.28-20.4Q132.06-20.4 132.57-19.95 133.08-19.5 133.08-18.66L133.08-18.66Q133.08-18.12 132.6-17.19 132.12-16.26 131.04-14.52L131.04-14.52Q129.12-11.34 128.01-8.91 126.9-6.48 126.9-4.32L126.9-4.32Q126.9-2.46 127.56-1.8 128.22-1.14 129.6-1.14L129.6-1.14Q134.34-1.14 139.02-10.32L139.02-10.32 139.92-9.36Q137.82-4.08 134.58-1.14 131.34 1.8 127.62 1.8L127.62 1.8ZM144.48 3.06Q140.28 3.06 138.27 0.63 136.26-1.8 136.26-5.16L136.26-5.16Q136.26-7.5 137.1-8.43 137.94-9.36 138.99-9.84 140.04-10.32 140.22-10.5L140.22-10.5Q144.06-14.46 146.04-18.72L146.04-18.72 146.04-19.32Q146.04-21.54 146.79-22.62 147.54-23.7 148.74-23.7L148.74-23.7Q150.06-23.7 150.18-22.5L150.18-22.5Q150.18-22.2 150.03-21.6 149.88-21 149.88-20.34L149.88-20.34Q149.88-19.2 150.24-17.94 150.6-16.68 151.38-14.52L151.38-14.52Q152.34-11.88 152.85-9.96 153.36-8.04 153.36-6.06L153.36-6.06Q153.36-5.04 153.12-3.6L153.12-3.6Q157.2-4.62 160.2-10.38L160.2-10.38 160.92-9.84Q159.72-6.42 157.59-4.32 155.46-2.22 152.58-1.8L152.58-1.8Q151.62 0.6 149.46 1.83 147.3 3.06 144.48 3.06L144.48 3.06ZM148.38-3.72Q148.56-4.26 148.56-5.58L148.56-5.58Q148.5-7.5 148.14-9.36 147.78-11.22 147.06-14.16L147.06-14.16 146.52-16.32Q143.58-11.22 141.3-8.82L141.3-8.82Q142.32-7.08 144.18-5.67 146.04-4.26 148.38-3.72L148.38-3.72ZM144.06 0.42Q145.26 0.42 146.31-0.18 147.36-0.78 147.9-1.92L147.9-1.92Q145.56-2.4 143.58-3.75 141.6-5.1 140.4-6.66L140.4-6.66Q139.56-6.48 139.56-5.04L139.56-5.04Q139.56-2.88 140.76-1.23 141.96 0.42 144.06 0.42L144.06 0.42Z" transform="translate(0, 43.31999969482422)"></path></g> <!----> <!----> <!----> <!----> <!----> <!----> <!----></g></g> <!----></g></g><defs v-gra="od"></defs></svg>